<svg xmlns="http://www.w3.org/2000/svg" xmlns:xlink="http://www.w3.org/1999/xlink" width="1920" zoomAndPan="magnify" viewBox="0 0 1440 809.999993" height="1080" preserveAspectRatio="xMidYMid meet" version="1.0"><defs><g/></defs><g fill="rgb(100%, 100%, 100%)" fill-opacity="1"><g transform="translate(403.078111, 463.124997)"><g><path d="M 42.09375 -117.78125 L 42.09375 0 L 9.359375 0 L 9.359375 -117.78125 Z M 42.09375 -117.78125 "/></g></g></g><g fill="rgb(100%, 100%, 100%)" fill-opacity="1"><g transform="translate(454.533343, 463.124997)"><g><path d="M 118.453125 0 L 85.703125 0 L 42.09375 -65.828125 L 42.09375 0 L 9.359375 0 L 9.359375 -117.78125 L 42.09375 -117.78125 L 85.703125 -51.125 L 85.703125 -117.78125 L 118.453125 -117.78125 Z M 118.453125 0 "/></g></g></g><g fill="rgb(100%, 100%, 100%)" fill-opacity="1"><g transform="translate(582.336126, 463.124997)"><g><path d="M 98.0625 -117.78125 L 98.0625 -91.71875 L 66.65625 -91.71875 L 66.65625 0 L 33.90625 0 L 33.90625 -91.71875 L 2.84375 -91.71875 L 2.84375 -117.78125 Z M 98.0625 -117.78125 "/></g></g></g><g fill="rgb(100%, 100%, 100%)" fill-opacity="1"><g transform="translate(683.241849, 463.124997)"><g><path d="M 83.859375 -19.21875 L 42.09375 -19.21875 L 35.75 0 L 1.34375 0 L 44.265625 -117.78125 L 82.03125 -117.78125 L 124.796875 0 L 90.21875 0 Z M 75.671875 -44.265625 L 62.984375 -82.359375 L 50.453125 -44.265625 Z M 75.671875 -44.265625 "/></g></g></g><g fill="rgb(100%, 100%, 100%)" fill-opacity="1"><g transform="translate(809.374022, 463.124997)"><g><path d="M 5.34375 -59.140625 C 5.34375 -70.722656 7.765625 -81.050781 12.609375 -90.125 C 17.453125 -99.207031 24.328125 -106.28125 33.234375 -111.34375 C 42.148438 -116.414062 52.398438 -118.953125 63.984375 -118.953125 C 78.679688 -118.953125 91.039062 -115.023438 101.0625 -107.171875 C 111.09375 -99.316406 117.554688 -88.648438 120.453125 -75.171875 L 85.203125 -75.171875 C 83.085938 -79.628906 80.160156 -83.023438 76.421875 -85.359375 C 72.691406 -87.703125 68.378906 -88.875 63.484375 -88.875 C 55.910156 -88.875 49.867188 -86.171875 45.359375 -80.765625 C 40.847656 -75.367188 38.59375 -68.160156 38.59375 -59.140625 C 38.59375 -50.003906 40.847656 -42.734375 45.359375 -37.328125 C 49.867188 -31.929688 55.910156 -29.234375 63.484375 -29.234375 C 68.378906 -29.234375 72.691406 -30.398438 76.421875 -32.734375 C 80.160156 -35.078125 83.085938 -38.476562 85.203125 -42.9375 L 120.453125 -42.9375 C 117.554688 -29.457031 111.09375 -18.789062 101.0625 -10.9375 C 91.039062 -3.09375 78.679688 0.828125 63.984375 0.828125 C 52.398438 0.828125 42.148438 -1.703125 33.234375 -6.765625 C 24.328125 -11.835938 17.453125 -18.910156 12.609375 -27.984375 C 7.765625 -37.054688 5.34375 -47.441406 5.34375 -59.140625 Z M 5.34375 -59.140625 "/></g></g></g><g fill="rgb(100%, 100%, 100%)" fill-opacity="1"><g transform="translate(936.007376, 463.124997)"><g><path d="M 98.0625 -117.78125 L 98.0625 -91.71875 L 66.65625 -91.71875 L 66.65625 0 L 33.90625 0 L 33.90625 -91.71875 L 2.84375 -91.71875 L 2.84375 -117.78125 Z M 98.0625 -117.78125 "/></g></g></g></svg>